<svg
                width="14"
                height="15"
                viewBox="0 0 14 15"
                fill="none"
                xmlns="http://www.w3.org/2000/svg"
              >
                <path
                  fill-rule="evenodd"
                  clip-rule="evenodd"
                  d="M0 7.03908C0 3.19023 2.98466 0.0703125 6.66666 0.0703125C10.3487 0.0703125 13.3333 3.19023 13.3333 7.03908C13.3333 10.8879 10.3487 14.0079 6.66666 14.0079C2.98466 14.0079 0 10.8879 0 7.03908ZM6.66666 1.46407C5.25217 1.46407 3.89562 2.05143 2.89543 3.09695C1.89523 4.14247 1.33333 5.5605 1.33333 7.03908C1.33333 8.51767 1.89523 9.9357 2.89543 10.9812C3.89562 12.0267 5.25217 12.6141 6.66666 12.6141C8.08114 12.6141 9.4377 12.0267 10.4379 10.9812C11.4381 9.9357 12 8.51767 12 7.03908C12 5.5605 11.4381 4.14247 10.4379 3.09695C9.4377 2.05143 8.08114 1.46407 6.66666 1.46407Z"
                  fill="#A2792C"
                />
                <path
                  fill-rule="evenodd"
                  clip-rule="evenodd"
                  d="M7.33366 3.5543C7.33366 3.36947 7.26342 3.19222 7.1384 3.06153C7.01337 2.93084 6.8438 2.85742 6.66699 2.85742C6.49018 2.85742 6.32061 2.93084 6.19559 3.06153C6.07056 3.19222 6.00033 3.36947 6.00033 3.5543V6.3418H3.33366C3.15685 6.3418 2.98728 6.41522 2.86225 6.54591C2.73723 6.6766 2.66699 6.85386 2.66699 7.03868C2.66699 7.2235 2.73723 7.40075 2.86225 7.53144C2.98728 7.66213 3.15685 7.73555 3.33366 7.73555H6.00033V10.5231C6.00033 10.7079 6.07056 10.8851 6.19559 11.0158C6.32061 11.1465 6.49018 11.2199 6.66699 11.2199C6.8438 11.2199 7.01337 11.1465 7.1384 11.0158C7.26342 10.8851 7.33366 10.7079 7.33366 10.5231V7.73555H10.0003C10.1771 7.73555 10.3467 7.66213 10.4717 7.53144C10.5968 7.40075 10.667 7.2235 10.667 7.03868C10.667 6.85386 10.5968 6.6766 10.4717 6.54591C10.3467 6.41522 10.1771 6.3418 10.0003 6.3418H7.33366V3.5543Z"
                  fill="#A2792C"
                />
              </svg>