<svg width="28" height="28" viewBox="0 0 28 28" fill="none" xmlns="http://www.w3.org/2000/svg">
<path d="M13.9997 2.33398C11.6922 2.33398 9.4366 3.01822 7.51803 4.30017C5.59945 5.58212 4.10411 7.40421 3.22109 9.53601C2.33806 11.6678 2.10702 14.0136 2.55718 16.2767C3.00735 18.5398 4.11849 20.6186 5.7501 22.2502C7.38171 23.8818 9.46051 24.993 11.7236 25.4431C13.9867 25.8933 16.3325 25.6623 18.4643 24.7792C20.5961 23.8962 22.4182 22.4009 23.7002 20.4823C24.9821 18.5637 25.6663 16.3081 25.6663 14.0007C25.6663 12.4686 25.3646 10.9515 24.7783 9.53601C24.192 8.12055 23.3326 6.83442 22.2493 5.75107C21.1659 4.66772 19.8798 3.80836 18.4643 3.22206C17.0489 2.63575 15.5318 2.33398 13.9997 2.33398ZM13.9997 23.334C12.1537 23.334 10.3492 22.7866 8.81436 21.761C7.2795 20.7355 6.08322 19.2778 5.3768 17.5724C4.67039 15.8669 4.48556 13.9903 4.84568 12.1798C5.20581 10.3693 6.09473 8.70628 7.40002 7.40099C8.70531 6.0957 10.3683 5.20678 12.1788 4.84666C13.9893 4.48653 15.8659 4.67136 17.5714 5.37778C19.2768 6.08419 20.7345 7.28047 21.7601 8.81533C22.7856 10.3502 23.333 12.1547 23.333 14.0007C23.333 16.476 22.3497 18.85 20.5993 20.6003C18.849 22.3507 16.475 23.334 13.9997 23.334Z" fill="white"/>
<path d="M13.9993 7.00008C12.9164 7.00008 11.8778 7.43029 11.112 8.19606C10.3462 8.96183 9.91602 10.0004 9.91602 11.0834C9.91602 11.3928 10.0389 11.6896 10.2577 11.9084C10.4765 12.1272 10.7733 12.2501 11.0827 12.2501C11.3921 12.2501 11.6888 12.1272 11.9076 11.9084C12.1264 11.6896 12.2493 11.3928 12.2493 11.0834C12.2493 10.7373 12.352 10.399 12.5443 10.1112C12.7366 9.82338 13.0099 9.59908 13.3297 9.46662C13.6494 9.33417 14.0013 9.29951 14.3408 9.36704C14.6802 9.43456 14.992 9.60123 15.2368 9.84597C15.4815 10.0907 15.6482 10.4025 15.7157 10.742C15.7832 11.0815 15.7486 11.4333 15.6161 11.7531C15.4837 12.0729 15.2594 12.3462 14.9716 12.5385C14.6838 12.7308 14.3455 12.8334 13.9993 12.8334C13.6899 12.8334 13.3932 12.9563 13.1744 13.1751C12.9556 13.3939 12.8327 13.6907 12.8327 14.0001V16.3334C12.8327 16.6428 12.9556 16.9396 13.1744 17.1584C13.3932 17.3772 13.6899 17.5001 13.9993 17.5001C14.3088 17.5001 14.6055 17.3772 14.8243 17.1584C15.0431 16.9396 15.166 16.6428 15.166 16.3334V14.9801C16.1088 14.7048 16.9203 14.0979 17.4509 13.2714C17.9815 12.4449 18.1955 11.4545 18.0535 10.4827C17.9114 9.51082 17.4228 8.62309 16.6778 7.9831C15.9327 7.34311 14.9815 6.99398 13.9993 7.00008Z" fill="white"/>
<path d="M13.9997 21.0013C14.644 21.0013 15.1663 20.479 15.1663 19.8346C15.1663 19.1903 14.644 18.668 13.9997 18.668C13.3553 18.668 12.833 19.1903 12.833 19.8346C12.833 20.479 13.3553 21.0013 13.9997 21.0013Z" fill="white"/>
</svg>
